<svg id="svg" version="1.1" xmlns="http://www.w3.org/2000/svg" xmlns:xlink="http://www.w3.org/1999/xlink" width="400" height="248.8294314381271" viewBox="0, 0, 400,248.8294314381271"><g id="svgg"><path id="path0" d="M277.013 25.852 C 273.856 34.154,269.182 84.272,270.773 92.754 C 271.955 99.054,275.862 101.395,279.359 97.899 C 281.507 95.750,281.962 92.489,282.617 74.547 C 283.554 48.869,284.927 45.201,288.706 58.266 C 290.185 63.377,291.797 71.171,292.288 75.585 C 294.587 96.246,306.689 112.040,314.351 104.378 C 318.027 100.702,314.304 92.308,308.997 92.308 C 307.409 92.308,305.242 85.498,304.315 77.592 C 303.175 67.881,293.313 36.461,288.457 27.071 C 285.604 21.554,278.917 20.841,277.013 25.852 M113.679 35.539 C 112.962 37.426,112.375 40.121,112.375 41.528 C 112.375 44.492,105.932 57.999,97.920 71.832 C 94.854 77.125,91.341 84.048,90.112 87.216 C 88.884 90.385,87.070 93.927,86.080 95.089 C 83.453 98.173,83.882 102.702,86.957 104.348 C 90.930 106.474,94.269 104.065,97.586 96.678 C 109.219 70.771,112.846 66.048,114.886 74.149 C 119.484 92.409,127.092 104.535,132.225 101.788 C 136.594 99.450,136.714 96.371,132.694 89.810 C 126.519 79.731,125.475 75.217,124.767 55.518 C 124.397 45.217,123.543 35.736,122.870 34.448 C 120.953 30.784,115.229 31.463,113.679 35.539 M52.843 99.266 C 42.067 103.163,35.109 109.477,32.060 118.123 C 21.546 147.937,19.536 154.698,17.264 167.893 C 11.884 199.146,16.425 210.526,38.100 220.112 C 42.026 221.848,45.631 223.903,46.110 224.678 C 46.589 225.453,48.260 226.087,49.824 226.087 C 51.388 226.087,55.360 227.390,58.651 228.984 L 64.634 231.880 67.135 228.791 C 71.683 223.175,68.047 219.999,48.532 212.547 C 42.482 210.237,35.108 206.271,32.144 203.735 L 26.756 199.123 26.797 188.859 C 26.861 172.878,28.962 160.295,34.107 145.080 C 43.467 117.398,46.487 113.032,58.518 109.792 C 64.944 108.062,67.681 104.549,65.166 101.261 C 62.955 98.372,57.678 97.517,52.843 99.266 M157.167 104.411 C 144.484 105.401,140.185 109.819,146.668 115.199 C 151.323 119.062,188.959 116.757,191.254 112.469 C 194.792 105.858,180.855 102.563,157.167 104.411 M227.759 105.727 C 223.940 107.263,223.676 113.044,227.337 115.003 C 236.540 119.929,261.045 115.198,258.650 108.958 C 256.990 104.633,235.955 102.433,227.759 105.727 M348.161 105.818 C 342.901 107.773,344.234 112.921,351.031 116.904 C 354.265 118.800,357.600 122.017,358.442 124.055 C 359.284 126.092,361.003 129.565,362.261 131.773 C 364.170 135.123,364.617 140.315,364.962 163.192 C 365.402 192.324,364.725 197.673,359.074 209.699 L 355.774 216.722 345.867 216.722 C 333.330 216.722,329.097 218.222,329.097 222.662 C 329.097 227.694,332.926 228.904,347.494 228.477 L 360.535 228.094 365.432 220.765 C 380.576 198.104,382.215 145.466,368.598 119.134 C 364.569 111.343,353.210 103.941,348.161 105.818 M200.576 130.547 C 198.199 133.410,200.590 137.124,204.810 137.124 C 208.450 137.124,209.824 133.406,207.305 130.371 C 205.206 127.843,202.767 127.906,200.576 130.547 M205.574 194.872 C 203.732 196.714,204.723 203.271,207.023 204.454 C 211.838 206.931,216.673 201.562,214.047 196.656 C 212.675 194.092,207.453 192.993,205.574 194.872 " stroke="none" fill="#000000" fill-rule="evenodd"></path></g></svg>