<svg id="svg" version="1.1" xmlns="http://www.w3.org/2000/svg" xmlns:xlink="http://www.w3.org/1999/xlink" width="400" height="248.8294314381271" viewBox="0, 0, 400,248.8294314381271"><g id="svgg"><path id="path0" d="M280.003 22.732 C 277.553 23.533,276.306 25.944,276.295 29.900 C 276.293 30.988,276.073 32.214,275.650 33.509 C 275.218 34.830,274.940 36.403,274.800 38.332 C 274.685 39.907,274.358 42.248,274.072 43.535 C 273.728 45.087,273.552 46.764,273.550 48.513 C 273.548 50.239,273.369 51.969,273.033 53.516 C 272.750 54.816,272.426 57.449,272.314 59.365 C 272.202 61.282,271.995 63.634,271.856 64.592 C 270.813 71.747,270.771 72.553,270.873 83.759 C 270.984 95.924,271.060 96.571,272.582 98.185 C 275.110 100.865,279.899 99.985,281.185 96.604 C 281.572 95.588,281.640 94.007,281.783 82.763 C 281.925 71.519,282.149 67.060,282.657 65.339 C 282.738 65.065,282.899 63.217,283.014 61.232 C 283.129 59.247,283.402 56.783,283.619 55.756 C 283.837 54.729,284.084 53.161,284.168 52.271 C 284.392 49.903,285.344 49.165,286.012 50.840 C 286.189 51.285,286.541 51.950,286.794 52.317 C 287.427 53.237,288.430 56.193,288.999 58.812 C 289.260 60.014,289.573 61.190,289.695 61.426 C 289.816 61.662,290.057 62.470,290.231 63.223 C 290.404 63.976,290.703 64.903,290.895 65.282 C 291.695 66.863,292.214 69.794,292.218 72.755 C 292.222 75.687,292.670 78.752,293.336 80.398 C 293.549 80.924,293.729 82.502,293.790 84.381 C 293.861 86.596,294.038 87.958,294.401 89.110 C 294.682 90.000,295.102 91.602,295.333 92.669 L 295.755 94.611 299.262 98.208 C 301.192 100.186,302.879 101.805,303.012 101.805 C 303.436 101.805,305.748 103.387,306.770 104.375 C 311.685 109.132,317.989 104.872,315.991 98.144 C 315.610 96.861,314.033 95.084,313.276 95.084 C 313.083 95.084,312.271 94.540,311.472 93.876 C 310.673 93.212,309.613 92.478,309.117 92.245 C 308.500 91.955,308.074 91.507,307.766 90.824 C 307.518 90.276,307.132 89.728,306.907 89.608 C 305.810 89.021,304.418 84.090,304.418 80.792 C 304.418 78.692,304.296 77.795,303.799 76.238 C 303.317 74.728,303.179 73.766,303.177 71.880 C 303.173 69.328,302.408 65.044,301.777 64.039 C 301.585 63.735,301.304 62.895,301.151 62.173 C 300.998 61.450,300.706 60.533,300.503 60.134 C 300.299 59.735,299.980 58.535,299.793 57.467 C 299.607 56.399,299.277 55.102,299.061 54.585 C 298.845 54.068,298.560 53.161,298.428 52.571 C 298.295 51.980,297.305 49.683,296.226 47.466 C 294.057 43.007,293.935 42.667,293.342 39.452 C 293.114 38.220,292.646 36.596,292.302 35.843 C 291.957 35.090,291.349 33.472,290.950 32.248 C 290.552 31.023,290.021 29.791,289.770 29.510 C 288.990 28.633,288.311 27.311,287.900 25.872 C 287.104 23.080,283.419 21.615,280.003 22.732 M116.366 32.232 C 114.061 33.320,113.256 35.056,113.078 39.328 C 112.953 42.355,112.631 43.708,111.629 45.416 C 111.291 45.994,111.014 46.637,111.014 46.846 C 111.014 47.055,110.786 47.516,110.508 47.870 C 110.229 48.224,109.877 48.884,109.726 49.335 C 109.574 49.786,109.299 50.331,109.114 50.546 C 108.803 50.908,108.284 52.232,107.367 55.009 C 107.014 56.077,105.741 58.946,105.269 59.739 C 105.147 59.944,104.870 60.429,104.654 60.816 C 104.234 61.569,103.059 63.150,101.572 64.966 C 101.067 65.582,100.233 66.982,99.719 68.077 C 99.204 69.172,98.683 70.236,98.560 70.442 C 98.438 70.647,97.760 71.935,97.054 73.304 C 95.157 76.983,94.658 77.896,94.324 78.299 C 93.675 79.081,90.853 84.662,90.853 85.164 C 90.853 85.353,90.637 85.910,90.374 86.400 C 90.112 86.891,89.766 87.785,89.607 88.388 C 89.449 88.990,89.162 89.728,88.970 90.028 C 88.778 90.327,88.504 91.098,88.360 91.741 C 88.078 92.997,87.705 93.564,85.712 95.758 C 82.027 99.815,84.212 105.040,89.594 105.040 C 92.822 105.040,94.109 104.230,95.719 101.182 C 96.225 100.224,96.842 99.183,97.089 98.868 C 97.336 98.554,97.615 97.950,97.708 97.527 C 97.801 97.104,98.143 96.185,98.469 95.485 C 98.795 94.785,99.063 93.933,99.065 93.591 C 99.067 93.248,99.278 92.624,99.535 92.203 C 99.791 91.783,100.184 90.808,100.408 90.038 C 100.632 89.268,100.923 88.571,101.054 88.490 C 101.186 88.409,101.417 87.871,101.568 87.295 C 101.719 86.719,102.095 85.856,102.403 85.376 C 104.610 81.943,105.070 81.157,106.408 78.531 C 107.035 77.299,107.928 75.619,108.391 74.798 C 108.854 73.976,109.408 72.930,109.622 72.473 C 109.836 72.016,110.265 71.329,110.575 70.947 C 110.885 70.564,111.386 69.930,111.689 69.538 C 113.297 67.450,113.073 67.602,113.745 68.145 C 114.287 68.585,114.361 68.889,114.522 71.341 C 114.723 74.395,115.206 76.324,117.105 81.643 C 117.788 83.558,118.979 87.852,118.979 88.401 C 118.979 88.846,120.574 91.938,121.256 92.815 C 121.510 93.142,121.717 93.608,121.717 93.851 C 121.717 94.095,122.265 94.949,122.934 95.749 C 123.603 96.550,124.315 97.596,124.517 98.074 C 126.559 102.915,133.461 103.838,135.269 99.511 C 136.213 97.254,135.869 93.760,134.580 92.508 C 133.909 91.856,132.670 90.205,132.670 89.964 C 132.670 89.560,130.626 85.625,130.416 85.625 C 129.973 85.625,128.841 83.493,128.501 82.016 C 128.311 81.195,128.011 80.298,127.833 80.022 C 127.655 79.747,127.382 78.930,127.227 78.205 C 127.072 77.481,126.785 76.579,126.589 76.202 C 126.012 75.085,125.202 71.475,125.202 70.017 C 125.202 68.736,124.884 66.634,124.069 62.532 C 123.785 61.101,123.709 58.176,123.709 48.631 C 123.709 35.133,123.656 34.616,122.136 33.183 C 120.798 31.921,118.003 31.460,116.366 32.232 M54.644 98.850 C 53.553 99.113,52.433 99.477,52.155 99.658 C 51.877 99.839,51.035 100.133,50.285 100.312 C 49.304 100.546,48.514 100.976,47.472 101.843 C 46.675 102.506,45.876 103.049,45.697 103.049 C 45.518 103.049,44.951 103.335,44.437 103.683 C 43.923 104.032,43.197 104.379,42.824 104.453 C 42.450 104.528,41.262 105.415,40.177 106.429 C 39.094 107.441,38.007 108.271,37.762 108.273 C 36.234 108.285,34.483 111.172,33.729 114.922 C 33.641 115.360,33.257 116.110,32.876 116.590 C 32.437 117.143,32.069 118.037,31.873 119.030 C 31.478 121.025,30.638 123.722,30.261 124.207 C 29.181 125.591,27.290 130.456,26.778 133.167 C 26.610 134.057,26.301 135.121,26.091 135.532 C 25.882 135.943,25.579 136.817,25.418 137.475 C 25.257 138.134,24.905 139.084,24.635 139.587 C 24.365 140.091,24.144 140.684,24.144 140.905 C 24.144 141.126,23.870 141.822,23.536 142.452 C 23.201 143.082,22.850 144.022,22.756 144.543 C 22.661 145.063,22.424 145.804,22.229 146.190 C 22.034 146.576,21.714 147.727,21.519 148.747 C 21.323 149.768,20.949 150.908,20.686 151.282 C 20.423 151.655,20.071 152.576,19.903 153.329 C 19.735 154.082,19.499 154.891,19.377 155.127 C 19.255 155.363,18.993 156.715,18.794 158.133 C 18.595 159.550,18.270 161.429,18.070 162.309 C 17.871 163.188,17.638 164.692,17.552 165.650 C 17.466 166.609,17.278 168.233,17.134 169.259 C 16.990 170.286,16.776 172.022,16.659 173.118 C 16.541 174.213,16.219 175.949,15.943 176.976 C 15.221 179.662,15.181 197.539,15.892 200.124 C 16.753 203.257,23.656 211.652,27.264 213.955 C 27.670 214.214,28.675 214.935,29.496 215.557 C 33.917 218.904,36.603 220.350,39.269 220.814 C 40.162 220.969,41.297 221.357,41.791 221.676 C 43.185 222.577,44.548 223.595,45.140 224.178 C 45.925 224.952,47.438 225.513,48.735 225.513 C 49.358 225.513,50.548 225.784,51.381 226.115 C 52.213 226.445,53.454 226.790,54.138 226.880 C 56.118 227.142,59.207 228.577,60.112 229.657 C 62.778 232.836,68.921 230.099,68.945 225.722 C 68.957 223.531,65.092 218.636,62.985 218.173 C 62.602 218.089,61.924 217.750,61.477 217.421 C 61.030 217.091,60.148 216.744,59.517 216.650 C 58.886 216.556,57.967 216.269,57.474 216.012 C 56.982 215.756,55.526 215.374,54.238 215.164 C 50.694 214.585,49.444 214.083,47.300 212.380 C 46.588 211.814,44.036 210.844,41.662 210.238 C 40.281 209.885,38.898 209.096,36.591 207.343 C 35.780 206.727,34.580 205.841,33.924 205.375 C 32.460 204.334,27.245 199.034,26.675 198.009 C 25.862 196.546,25.933 181.231,26.768 178.083 C 27.129 176.721,27.520 174.487,27.637 173.118 C 28.200 166.505,28.436 164.502,28.866 162.663 C 29.122 161.568,29.410 159.944,29.506 159.054 C 29.602 158.164,29.890 157.044,30.146 156.565 C 31.008 154.949,31.891 152.349,32.153 150.656 C 32.296 149.730,32.532 148.749,32.679 148.475 C 32.825 148.202,33.195 147.306,33.501 146.484 C 33.807 145.663,34.328 144.263,34.659 143.373 C 34.990 142.483,35.448 141.396,35.676 140.958 C 35.905 140.520,36.092 139.979,36.092 139.755 C 36.092 139.532,36.365 138.546,36.698 137.565 C 37.032 136.584,37.384 135.221,37.481 134.536 C 37.578 133.852,37.921 132.902,38.244 132.425 C 38.566 131.948,38.830 131.470,38.830 131.362 C 38.830 131.042,40.830 126.968,41.056 126.829 C 41.171 126.758,41.464 125.887,41.707 124.893 C 42.121 123.202,42.570 122.107,43.897 119.551 C 44.196 118.975,44.970 117.975,45.618 117.327 C 46.265 116.680,46.795 116.067,46.795 115.966 C 46.795 115.411,48.257 114.207,49.913 113.400 C 50.951 112.894,52.383 112.038,53.094 111.499 C 54.031 110.789,54.629 110.518,55.265 110.518 C 55.748 110.517,56.980 110.248,58.003 109.921 C 59.026 109.593,60.405 109.249,61.068 109.155 C 63.954 108.749,65.434 107.525,65.944 105.123 C 67.033 99.993,61.842 97.111,54.644 98.850 M164.281 104.187 C 163.391 104.370,161.207 104.525,159.428 104.532 C 146.930 104.578,142.806 106.737,144.345 112.427 C 145.289 115.913,151.405 118.423,155.119 116.848 C 156.425 116.294,161.659 116.048,177.598 115.792 C 189.304 115.603,189.297 115.604,190.732 114.077 C 192.414 112.285,192.210 108.495,190.338 106.767 C 188.888 105.428,187.607 105.229,179.216 105.046 C 173.284 104.915,171.694 104.800,169.509 104.343 C 166.576 103.729,166.522 103.727,164.281 104.187 M230.118 105.169 C 229.981 105.218,229.226 105.385,228.441 105.540 C 223.641 106.486,222.922 113.492,227.431 115.376 C 228.792 115.944,254.027 115.921,255.704 115.349 C 259.056 114.207,259.874 109.171,257.112 106.676 C 256.571 106.187,256.082 105.787,256.026 105.787 C 255.970 105.787,255.046 105.619,253.973 105.414 C 252.191 105.073,230.996 104.855,230.118 105.169 M350.591 105.169 C 350.454 105.218,349.684 105.388,348.879 105.547 C 343.798 106.550,343.305 114.034,348.227 115.462 C 349.916 115.952,350.897 116.490,352.599 117.859 C 353.450 118.544,354.763 119.540,355.517 120.074 C 356.841 121.011,357.934 122.474,357.934 123.311 C 357.934 124.696,358.812 126.727,359.850 127.742 C 361.441 129.298,362.364 130.710,362.664 132.051 C 362.810 132.700,363.057 133.468,363.215 133.759 C 363.372 134.050,363.698 134.960,363.938 135.781 C 364.178 136.602,364.716 138.227,365.135 139.390 L 365.896 141.506 365.898 164.505 C 365.899 189.053,365.920 188.577,364.656 193.404 C 364.387 194.431,364.053 196.143,363.914 197.210 C 363.775 198.277,363.499 199.464,363.300 199.848 C 363.101 200.233,362.800 201.096,362.631 201.767 C 362.462 202.438,362.131 203.323,361.896 203.734 C 361.660 204.144,361.346 205.065,361.198 205.781 C 361.050 206.496,360.703 207.502,360.427 208.017 C 360.151 208.532,359.925 209.077,359.925 209.227 C 359.925 209.378,359.617 209.794,359.241 210.153 C 358.103 211.238,357.408 212.275,357.160 213.257 C 356.084 217.521,356.001 217.548,344.255 217.548 C 332.832 217.548,331.801 217.684,330.156 219.400 C 327.575 222.094,328.531 226.491,331.990 227.838 C 333.716 228.510,358.657 228.460,360.216 227.782 C 361.605 227.177,363.584 225.195,364.191 223.798 C 364.453 223.197,365.097 222.189,365.623 221.558 C 366.212 220.852,366.745 219.839,367.010 218.923 C 367.403 217.561,368.019 216.422,368.797 215.620 C 369.337 215.063,370.386 212.605,370.628 211.330 C 370.758 210.645,371.030 209.830,371.234 209.519 C 371.438 209.208,371.734 208.348,371.893 207.608 C 372.052 206.867,372.448 205.760,372.774 205.147 C 373.100 204.534,373.367 203.774,373.367 203.457 C 373.367 203.140,373.579 202.342,373.839 201.682 C 374.099 201.023,374.441 199.591,374.599 198.500 C 374.757 197.408,375.093 195.787,375.345 194.897 C 376.613 190.431,376.602 190.692,376.600 164.237 C 376.598 137.448,376.641 138.374,375.283 135.781 C 374.852 134.959,374.034 132.553,373.463 130.429 C 373.260 129.676,372.885 128.668,372.630 128.189 C 372.374 127.710,372.081 126.871,371.980 126.325 C 371.736 125.013,370.563 122.560,369.790 121.745 C 369.185 121.108,368.780 120.201,368.116 118.006 C 367.686 116.582,363.584 112.377,360.921 110.630 C 359.894 109.957,358.404 108.758,357.609 107.966 C 355.700 106.066,355.409 105.902,353.116 105.437 C 351.100 105.028,351.011 105.019,350.591 105.169 M200.970 129.994 L 199.378 131.549 199.378 133.259 C 199.378 136.252,201.258 137.897,204.682 137.897 L 206.904 137.897 207.870 136.930 C 210.637 134.163,208.068 128.438,204.059 128.438 L 202.562 128.438 200.970 129.994 M207.441 194.113 C 203.209 195.419,203.132 203.352,207.335 204.998 C 210.520 206.246,213.619 204.805,214.417 201.706 C 215.779 196.412,212.291 192.616,207.441 194.113 " stroke="none" fill="#070707" fill-rule="evenodd"></path><path id="path1" d="M0.000 124.456 L 0.000 248.911 200.000 248.911 L 400.000 248.911 400.000 124.456 L 400.000 0.000 200.000 0.000 L 0.000 0.000 0.000 124.456 M284.465 22.663 C 286.177 23.058,287.432 24.231,287.900 25.872 C 288.311 27.311,288.990 28.633,289.770 29.510 C 290.021 29.791,290.552 31.023,290.950 32.248 C 291.349 33.472,291.957 35.090,292.302 35.843 C 292.646 36.596,293.114 38.220,293.342 39.452 C 293.935 42.667,294.057 43.007,296.226 47.466 C 297.305 49.683,298.295 51.980,298.428 52.571 C 298.560 53.161,298.845 54.068,299.061 54.585 C 299.277 55.102,299.607 56.399,299.793 57.467 C 299.980 58.535,300.299 59.735,300.503 60.134 C 300.706 60.533,300.998 61.450,301.151 62.173 C 301.304 62.895,301.585 63.735,301.777 64.039 C 302.408 65.044,303.173 69.328,303.177 71.880 C 303.179 73.766,303.317 74.728,303.799 76.238 C 304.296 77.795,304.418 78.692,304.418 80.792 C 304.418 84.090,305.810 89.021,306.907 89.608 C 307.132 89.728,307.518 90.276,307.766 90.824 C 308.074 91.507,308.500 91.955,309.117 92.245 C 309.613 92.478,310.673 93.212,311.472 93.876 C 312.271 94.540,313.083 95.084,313.276 95.084 C 314.033 95.084,315.610 96.861,315.991 98.144 C 317.989 104.872,311.685 109.132,306.770 104.375 C 305.748 103.387,303.436 101.805,303.012 101.805 C 302.879 101.805,301.192 100.186,299.262 98.208 L 295.755 94.611 295.333 92.669 C 295.102 91.602,294.682 90.000,294.401 89.110 C 294.038 87.958,293.861 86.596,293.790 84.381 C 293.729 82.502,293.549 80.924,293.336 80.398 C 292.670 78.752,292.222 75.687,292.218 72.755 C 292.214 69.794,291.695 66.863,290.895 65.282 C 290.703 64.903,290.404 63.976,290.231 63.223 C 290.057 62.470,289.816 61.662,289.695 61.426 C 289.573 61.190,289.260 60.014,288.999 58.812 C 288.430 56.193,287.427 53.237,286.794 52.317 C 286.541 51.950,286.189 51.285,286.012 50.840 C 285.344 49.165,284.392 49.903,284.168 52.271 C 284.084 53.161,283.837 54.729,283.619 55.756 C 283.402 56.783,283.129 59.247,283.014 61.232 C 282.899 63.217,282.738 65.065,282.657 65.339 C 282.149 67.060,281.925 71.519,281.783 82.763 C 281.640 94.007,281.572 95.588,281.185 96.604 C 279.899 99.985,275.110 100.865,272.582 98.185 C 271.060 96.571,270.984 95.924,270.873 83.759 C 270.771 72.553,270.813 71.747,271.856 64.592 C 271.995 63.634,272.202 61.282,272.314 59.365 C 272.426 57.449,272.750 54.816,273.033 53.516 C 273.369 51.969,273.548 50.239,273.550 48.513 C 273.552 46.764,273.728 45.087,274.072 43.535 C 274.358 42.248,274.685 39.907,274.800 38.332 C 274.940 36.403,275.218 34.830,275.650 33.509 C 276.073 32.214,276.293 30.988,276.295 29.900 C 276.311 24.066,279.252 21.461,284.465 22.663 M120.334 32.136 C 123.558 33.031,123.709 33.767,123.709 48.631 C 123.709 58.176,123.785 61.101,124.069 62.532 C 124.884 66.634,125.202 68.736,125.202 70.017 C 125.202 71.475,126.012 75.085,126.589 76.202 C 126.785 76.579,127.072 77.481,127.227 78.205 C 127.382 78.930,127.655 79.747,127.833 80.022 C 128.011 80.298,128.311 81.195,128.501 82.016 C 128.841 83.493,129.973 85.625,130.416 85.625 C 130.626 85.625,132.670 89.560,132.670 89.964 C 132.670 90.205,133.909 91.856,134.580 92.508 C 135.869 93.760,136.213 97.254,135.269 99.511 C 133.461 103.838,126.559 102.915,124.517 98.074 C 124.315 97.596,123.603 96.550,122.934 95.749 C 122.265 94.949,121.717 94.095,121.717 93.851 C 121.717 93.608,121.510 93.142,121.256 92.815 C 120.574 91.938,118.979 88.846,118.979 88.401 C 118.979 87.852,117.788 83.558,117.105 81.643 C 115.206 76.324,114.723 74.395,114.522 71.341 C 114.361 68.889,114.287 68.585,113.745 68.145 C 113.073 67.602,113.297 67.450,111.689 69.538 C 111.386 69.930,110.885 70.564,110.575 70.947 C 110.265 71.329,109.836 72.016,109.622 72.473 C 109.408 72.930,108.854 73.976,108.391 74.798 C 107.928 75.619,107.035 77.299,106.408 78.531 C 105.070 81.157,104.610 81.943,102.403 85.376 C 102.095 85.856,101.719 86.719,101.568 87.295 C 101.417 87.871,101.186 88.409,101.054 88.490 C 100.923 88.571,100.632 89.268,100.408 90.038 C 100.184 90.808,99.791 91.783,99.535 92.203 C 99.278 92.624,99.067 93.248,99.065 93.591 C 99.063 93.933,98.795 94.785,98.469 95.485 C 98.143 96.185,97.801 97.104,97.708 97.527 C 97.615 97.950,97.336 98.554,97.089 98.868 C 96.842 99.183,96.225 100.224,95.719 101.182 C 94.109 104.230,92.822 105.040,89.594 105.040 C 84.212 105.040,82.027 99.815,85.712 95.758 C 87.705 93.564,88.078 92.997,88.360 91.741 C 88.504 91.098,88.778 90.327,88.970 90.028 C 89.162 89.728,89.449 88.990,89.607 88.388 C 89.766 87.785,90.112 86.891,90.374 86.400 C 90.637 85.910,90.853 85.353,90.853 85.164 C 90.853 84.662,93.675 79.081,94.324 78.299 C 94.658 77.896,95.157 76.983,97.054 73.304 C 97.760 71.935,98.438 70.647,98.560 70.442 C 98.683 70.236,99.204 69.172,99.719 68.077 C 100.233 66.982,101.067 65.582,101.572 64.966 C 103.059 63.150,104.234 61.569,104.654 60.816 C 104.870 60.429,105.147 59.944,105.269 59.739 C 105.741 58.946,107.014 56.077,107.367 55.009 C 108.284 52.232,108.803 50.908,109.114 50.546 C 109.299 50.331,109.574 49.786,109.726 49.335 C 109.877 48.884,110.229 48.224,110.508 47.870 C 110.786 47.516,111.014 47.055,111.014 46.846 C 111.014 46.637,111.291 45.994,111.629 45.416 C 112.631 43.708,112.953 42.355,113.078 39.328 C 113.329 33.310,115.787 30.873,120.334 32.136 M61.621 98.821 C 68.111 100.335,67.689 108.223,61.068 109.155 C 60.405 109.249,59.026 109.593,58.003 109.921 C 56.980 110.248,55.748 110.517,55.265 110.518 C 54.629 110.518,54.031 110.789,53.094 111.499 C 52.383 112.038,50.951 112.894,49.913 113.400 C 48.257 114.207,46.795 115.411,46.795 115.966 C 46.795 116.067,46.265 116.680,45.618 117.327 C 44.970 117.975,44.196 118.975,43.897 119.551 C 42.570 122.107,42.121 123.202,41.707 124.893 C 41.464 125.887,41.171 126.758,41.056 126.829 C 40.830 126.968,38.830 131.042,38.830 131.362 C 38.830 131.470,38.566 131.948,38.244 132.425 C 37.921 132.902,37.578 133.852,37.481 134.536 C 37.384 135.221,37.032 136.584,36.698 137.565 C 36.365 138.546,36.092 139.532,36.092 139.755 C 36.092 139.979,35.905 140.520,35.676 140.958 C 35.448 141.396,34.990 142.483,34.659 143.373 C 34.328 144.263,33.807 145.663,33.501 146.484 C 33.195 147.306,32.825 148.202,32.679 148.475 C 32.532 148.749,32.296 149.730,32.153 150.656 C 31.891 152.349,31.008 154.949,30.146 156.565 C 29.890 157.044,29.602 158.164,29.506 159.054 C 29.410 159.944,29.122 161.568,28.866 162.663 C 28.436 164.502,28.200 166.505,27.637 173.118 C 27.520 174.487,27.129 176.721,26.768 178.083 C 25.933 181.231,25.862 196.546,26.675 198.009 C 27.245 199.034,32.460 204.334,33.924 205.375 C 34.580 205.841,35.780 206.727,36.591 207.343 C 38.898 209.096,40.281 209.885,41.662 210.238 C 44.036 210.844,46.588 211.814,47.300 212.380 C 49.444 214.083,50.694 214.585,54.238 215.164 C 55.526 215.374,56.982 215.756,57.474 216.012 C 57.967 216.269,58.886 216.556,59.517 216.650 C 60.148 216.744,61.030 217.091,61.477 217.421 C 61.924 217.750,62.602 218.089,62.985 218.173 C 65.092 218.636,68.957 223.531,68.945 225.722 C 68.921 230.099,62.778 232.836,60.112 229.657 C 59.207 228.577,56.118 227.142,54.138 226.880 C 53.454 226.790,52.213 226.445,51.381 226.115 C 50.548 225.784,49.358 225.513,48.735 225.513 C 47.438 225.513,45.925 224.952,45.140 224.178 C 44.548 223.595,43.185 222.577,41.791 221.676 C 41.297 221.357,40.162 220.969,39.269 220.814 C 36.603 220.350,33.917 218.904,29.496 215.557 C 28.675 214.935,27.670 214.214,27.264 213.955 C 23.656 211.652,16.753 203.257,15.892 200.124 C 15.181 197.539,15.221 179.662,15.943 176.976 C 16.219 175.949,16.541 174.213,16.659 173.118 C 16.776 172.022,16.990 170.286,17.134 169.259 C 17.278 168.233,17.466 166.609,17.552 165.650 C 17.638 164.692,17.871 163.188,18.070 162.309 C 18.270 161.429,18.595 159.550,18.794 158.133 C 18.993 156.715,19.255 155.363,19.377 155.127 C 19.499 154.891,19.735 154.082,19.903 153.329 C 20.071 152.576,20.423 151.655,20.686 151.282 C 20.949 150.908,21.323 149.768,21.519 148.747 C 21.714 147.727,22.034 146.576,22.229 146.190 C 22.424 145.804,22.661 145.063,22.756 144.543 C 22.850 144.022,23.201 143.082,23.536 142.452 C 23.870 141.822,24.144 141.126,24.144 140.905 C 24.144 140.684,24.365 140.091,24.635 139.587 C 24.905 139.084,25.257 138.134,25.418 137.475 C 25.579 136.817,25.882 135.943,26.091 135.532 C 26.301 135.121,26.610 134.057,26.778 133.167 C 27.290 130.456,29.181 125.591,30.261 124.207 C 30.638 123.722,31.478 121.025,31.873 119.030 C 32.069 118.037,32.437 117.143,32.876 116.590 C 33.257 116.110,33.641 115.360,33.729 114.922 C 34.483 111.172,36.234 108.285,37.762 108.273 C 38.007 108.271,39.094 107.441,40.177 106.429 C 41.262 105.415,42.450 104.528,42.824 104.453 C 43.197 104.379,43.923 104.032,44.437 103.683 C 44.951 103.335,45.518 103.049,45.697 103.049 C 45.876 103.049,46.675 102.506,47.472 101.843 C 48.514 100.976,49.304 100.546,50.285 100.312 C 51.035 100.133,51.877 99.839,52.155 99.658 C 53.963 98.483,58.465 98.085,61.621 98.821 M169.509 104.343 C 171.694 104.800,173.284 104.915,179.216 105.046 C 187.607 105.229,188.888 105.428,190.338 106.767 C 192.210 108.495,192.414 112.285,190.732 114.077 C 189.297 115.604,189.304 115.603,177.598 115.792 C 161.659 116.048,156.425 116.294,155.119 116.848 C 151.405 118.423,145.289 115.913,144.345 112.427 C 142.806 106.737,146.930 104.578,159.428 104.532 C 161.207 104.525,163.391 104.370,164.281 104.187 C 166.522 103.727,166.576 103.729,169.509 104.343 M253.973 105.414 C 255.046 105.619,255.970 105.787,256.026 105.787 C 256.082 105.787,256.571 106.187,257.112 106.676 C 259.874 109.171,259.056 114.207,255.704 115.349 C 254.027 115.921,228.792 115.944,227.431 115.376 C 222.922 113.492,223.641 106.486,228.441 105.540 C 229.226 105.385,229.981 105.218,230.118 105.169 C 230.996 104.855,252.191 105.073,253.973 105.414 M353.116 105.437 C 355.409 105.902,355.700 106.066,357.609 107.966 C 358.404 108.758,359.894 109.957,360.921 110.630 C 363.584 112.377,367.686 116.582,368.116 118.006 C 368.780 120.201,369.185 121.108,369.790 121.745 C 370.563 122.560,371.736 125.013,371.980 126.325 C 372.081 126.871,372.374 127.710,372.630 128.189 C 372.885 128.668,373.260 129.676,373.463 130.429 C 374.034 132.553,374.852 134.959,375.283 135.781 C 376.641 138.374,376.598 137.448,376.600 164.237 C 376.602 190.692,376.613 190.431,375.345 194.897 C 375.093 195.787,374.757 197.408,374.599 198.500 C 374.441 199.591,374.099 201.023,373.839 201.682 C 373.579 202.342,373.367 203.140,373.367 203.457 C 373.367 203.774,373.100 204.534,372.774 205.147 C 372.448 205.760,372.052 206.867,371.893 207.608 C 371.734 208.348,371.438 209.208,371.234 209.519 C 371.030 209.830,370.758 210.645,370.628 211.330 C 370.386 212.605,369.337 215.063,368.797 215.620 C 368.019 216.422,367.403 217.561,367.010 218.923 C 366.745 219.839,366.212 220.852,365.623 221.558 C 365.097 222.189,364.453 223.197,364.191 223.798 C 363.584 225.195,361.605 227.177,360.216 227.782 C 358.657 228.460,333.716 228.510,331.990 227.838 C 328.531 226.491,327.575 222.094,330.156 219.400 C 331.801 217.684,332.832 217.548,344.255 217.548 C 356.001 217.548,356.084 217.521,357.160 213.257 C 357.408 212.275,358.103 211.238,359.241 210.153 C 359.617 209.794,359.925 209.378,359.925 209.227 C 359.925 209.077,360.151 208.532,360.427 208.017 C 360.703 207.502,361.050 206.496,361.198 205.781 C 361.346 205.065,361.660 204.144,361.896 203.734 C 362.131 203.323,362.462 202.438,362.631 201.767 C 362.800 201.096,363.101 200.233,363.300 199.848 C 363.499 199.464,363.775 198.277,363.914 197.210 C 364.053 196.143,364.387 194.431,364.656 193.404 C 365.920 188.577,365.899 189.053,365.898 164.505 L 365.896 141.506 365.135 139.390 C 364.716 138.227,364.178 136.602,363.938 135.781 C 363.698 134.960,363.372 134.050,363.215 133.759 C 363.057 133.468,362.810 132.700,362.664 132.051 C 362.364 130.710,361.441 129.298,359.850 127.742 C 358.812 126.727,357.934 124.696,357.934 123.311 C 357.934 122.474,356.841 121.011,355.517 120.074 C 354.763 119.540,353.450 118.544,352.599 117.859 C 350.897 116.490,349.916 115.952,348.227 115.462 C 343.305 114.034,343.798 106.550,348.879 105.547 C 349.684 105.388,350.454 105.218,350.591 105.169 C 351.011 105.019,351.100 105.028,353.116 105.437 M206.845 129.457 C 209.194 131.314,209.711 135.089,207.870 136.930 L 206.904 137.897 204.682 137.897 C 201.258 137.897,199.378 136.252,199.378 133.259 L 199.378 131.549 200.970 129.994 L 202.562 128.438 204.059 128.438 C 205.435 128.438,205.660 128.520,206.845 129.457 M211.530 194.138 C 215.646 195.318,215.898 203.095,211.880 204.902 C 208.488 206.427,205.045 204.646,204.359 201.013 C 203.431 196.091,206.864 192.800,211.530 194.138 " stroke="none" fill="#fbfbfb" fill-rule="evenodd"></path></g></svg>